<svg id="Layer_2" data-name="Layer 2" xmlns="http://www.w3.org/2000/svg" viewBox="0 0 115.15 133.09"><defs><style>.cls-1{fill:#124572;}</style></defs><path class="cls-1" d="M127.57,109.49a14.36,14.36,0,0,0-1.49-6.37V16.67A13.23,13.23,0,0,0,112.86,3.45a13.47,13.47,0,0,0-2.76.29L29.62,3.48h-.05a14.83,14.83,0,0,0-14,10l-3.05,8.83a1.44,1.44,0,0,0,.88,1.83,1.49,1.49,0,0,0,.47.07H26.69v92.54a1.44,1.44,0,0,0,1.44,1.43h73.61a14.43,14.43,0,0,0,3.89,3.54v13.39a1.43,1.43,0,0,0,2.39,1.07l5.17-4.6,5.18,4.6a1.4,1.4,0,0,0,.95.37,1.44,1.44,0,0,0,1.43-1.44V121.72A14.38,14.38,0,0,0,127.57,109.49ZM18.27,14.4a12,12,0,0,1,11.3-8h0l74.59.23a13.5,13.5,0,0,0-4.46,7.24L98,21.35H15.87Zm11.3,100.92V24.21H99.08a1.44,1.44,0,0,0,1.4-1.11l2.06-8.63a10.57,10.57,0,0,1,10.33-8.15,10.36,10.36,0,0,1,10.35,10.35V99.19a14.38,14.38,0,0,0-23.17,16.13Zm88.3,16.59-3.72-3.31a1.45,1.45,0,0,0-1.91,0l-3.74,3.32v-8.84a14.23,14.23,0,0,0,9.38,0ZM113.18,121a11.52,11.52,0,1,1,11.52-11.52A11.53,11.53,0,0,1,113.18,121Z" transform="translate(-12.43 -3.45)"/><path class="cls-1" d="M113.19,101.56a7.93,7.93,0,1,0,7.93,7.93h0A7.93,7.93,0,0,0,113.19,101.56Zm0,13a5.07,5.07,0,1,1,5.06-5.07A5.06,5.06,0,0,1,113.19,114.56Z" transform="translate(-12.43 -3.45)"/><path class="cls-1" d="M55.88,77.17H93.06a1.43,1.43,0,0,0,1.43-1.43h0V49.59a1.45,1.45,0,0,0-.59-1.17L75.31,35a1.44,1.44,0,0,0-1.68,0L55,48.42a1.45,1.45,0,0,0-.59,1.17V75.74A1.43,1.43,0,0,0,55.88,77.17Zm12.95-2.86V60.91a5.65,5.65,0,0,1,11.29,0v13.4Zm-11.53-24,17.15-12.4,17.16,12.4v24H83V60.91a8.52,8.52,0,0,0-17,0h0v13.4H57.31Z" transform="translate(-12.43 -3.45)"/><path class="cls-1" d="M41.13,91.33h66.68a1.43,1.43,0,1,0,0-2.86H41.13a1.43,1.43,0,0,0,0,2.86Z" transform="translate(-12.43 -3.45)"/><path class="cls-1" d="M72.12,100.61h-31a1.44,1.44,0,0,0,0,2.87h31a1.44,1.44,0,1,0,0-2.87Z" transform="translate(-12.43 -3.45)"/></svg>