<svg id="Layer_5" data-name="Layer 5" xmlns="http://www.w3.org/2000/svg" viewBox="0 0 124.24 119.11"><defs><style>.cls-1{fill:#124572;}</style></defs><path class="cls-1" d="M68.13,121.67c-1-.66-2-1.23-2.84-1.91-3-2.24-2.19-5.56,0-7.32.51-.42,1.07-.77,1.55-1.11a36.74,36.74,0,0,1-3.25-1.8,7.34,7.34,0,0,1-.25-12.29c.39-.29.79-.55,1.27-.89a20.56,20.56,0,0,1-2-.77,32.22,32.22,0,0,1-3.64-1.9c-5.53-3.62-4-10.52-.55-13.41l1.19-1c-1.39-.31-2.72-.55-4-.9a13.85,13.85,0,0,1-5.34-2.53A8.84,8.84,0,0,1,47,67.58c.57-5.08,3.81-7.82,8.43-9.14a15.75,15.75,0,0,1,4.87-.63,2.85,2.85,0,0,1,2.84,2.77,3.52,3.52,0,0,1-2.8,3.62c-1.25.24-2.52.35-3.76.63a6.16,6.16,0,0,0-1.88.81,3.75,3.75,0,0,0,.11,6.5,19.54,19.54,0,0,0,6.16,2c2.12.41,4.26.75,6.39,1.11a2.65,2.65,0,0,0,.4,0c0-1.38,0-2.73,0-4.07q-.42-20.31-.86-40.63c0-.23,0-.46,0-.69a4,4,0,0,0-1.26-3.41,5.64,5.64,0,0,1,.7-8.17,5.82,5.82,0,0,1,7.55,8.87,1.63,1.63,0,0,0-.64,1.35q-.36,18.32-.78,36.65c-.06,3.11-.15,6.22-.23,9.33,0,.25,0,.5,0,.83,1.36-.23,2.65-.4,3.91-.67,2.46-.52,4.92-1.07,7.36-1.67a7.1,7.1,0,0,0,1.8-.81,3.74,3.74,0,0,0,.07-6.5,9.57,9.57,0,0,0-4.59-1.28A3.72,3.72,0,0,1,77,61.27a2.75,2.75,0,0,1,1.54-3.17,4.85,4.85,0,0,1,3-.34c3.29.48,6.35,1.45,8.8,3.85,3.85,3.77,4.55,12.41-2.85,15.75a27.08,27.08,0,0,1-7.08,1.9c.53.43,1,.78,1.42,1.16,3.13,2.79,3.88,7.78,1.64,11a10.92,10.92,0,0,1-4.52,3.55c-1.12.52-2.29.94-3.49,1.42.5.36,1,.7,1.46,1.07a7.28,7.28,0,0,1-.46,12.08c-1,.69-2.17,1.21-3.3,1.82.37.25.8.51,1.19.8a5,5,0,0,1,2.3,4.26A3.43,3.43,0,0,1,75.45,119c-1.12,1-2.36,1.82-3.58,2.75l.43.36a5,5,0,0,1,1.84,3.32c.28,2.07-.83,3.4-2.42,4.41a1.45,1.45,0,0,0-.79,1.47c0,.84,0,1.68,0,2.52,0,1.24-.4,2.17-.89,2.19s-.91-.9-.93-2.15c0-.86,0-1.73,0-2.6,0-.58-.1-1-.7-1.27a2.11,2.11,0,0,1-.51-.35c-2.75-2.06-2.86-5.28-.25-7.54ZM68,81.08c-1.58.45-3,.78-4.44,1.29a10.39,10.39,0,0,0-2.47,1.34c-1.68,1.21-2.46,4.45-.79,6.1,2.21,2.18,5,3,8,4Zm4.07.1c-.08,4.24-.17,8.36-.25,12.67,1.6-.62,3.12-1.07,4.51-1.78a21.59,21.59,0,0,0,3.45-2.34,2.71,2.71,0,0,0,.91-2.34A4.93,4.93,0,0,0,77.92,83,21.63,21.63,0,0,0,72,81.18Zm-3.46,28.26-.25-11.28a9.59,9.59,0,0,0-4.17,2.3,4.44,4.44,0,0,0-.31,6A10.66,10.66,0,0,0,68.57,109.44Zm2.86-.1a11,11,0,0,0,4.27-2.42,4.49,4.49,0,0,0,.17-6.4,9.32,9.32,0,0,0-4.19-2.33C71.6,101.94,71.51,105.61,71.43,109.34Zm-2.77,10.81V112.8a5.54,5.54,0,0,0-3.19,2.28,2.23,2.23,0,0,0,.08,2.58A8.67,8.67,0,0,0,68.66,120.15Zm2.65-7.36v7.33a8.65,8.65,0,0,0,3.13-2.52,2.23,2.23,0,0,0,0-2.52A5.85,5.85,0,0,0,71.31,112.79Zm-2.41,10a4,4,0,0,0-2.1,3.7c.07,1.41,1.13,2.2,2.1,3.1Zm2.22,6.69c1-1,2.15-1.83,2-3.41a3.86,3.86,0,0,0-2-3.17Z" transform="translate(-7.88 -16.89)"/><path class="cls-1" d="M63.07,37.56c.09,3.19.18,6.25.26,9.3.05,1.76.1,3.52.1,5.28,0,.23-.2.64-.37.68-3,.62-6,1-9,.08a33.87,33.87,0,0,1-3.26-1.43,9.44,9.44,0,0,1-6.21,2c-2.54-.23-4-2-5.29-4-2,1-4.09,1.68-6.35,1.07a6.16,6.16,0,0,1-4.39-4.58,8.42,8.42,0,0,1-6.48,0c-2.35-1-3-3-3.24-5.22-1.47-.08-2.92-.08-4.35-.26C11,40,8.55,41.62,7.91,38.18c-.13-.74.16-1.09.8-1.18a23.77,23.77,0,0,1,3-.32c4.69-.07,9.39-4.19,14.08-4.11a43.4,43.4,0,0,0,16.73-3.34c2.29-.91,4.68-1.54,7-2.29a4.68,4.68,0,0,1,.75-.11c2.44-.35,3.48.7,3.74,3.26.1,1.06.15,2.14.27,3.2a3.47,3.47,0,0,0,1.79,2.61A12.46,12.46,0,0,0,62,37.55C62.35,37.58,62.67,37.56,63.07,37.56Z" transform="translate(-7.88 -16.89)"/><path class="cls-1" d="M121.2,40.71c-.25,4.79-4.35,7-9.75,5.29-1.45,4.54-5.7,6-10.78,3.45-1.23,2-2.71,3.76-5.24,4a9.56,9.56,0,0,1-6.4-2.1c-2.92,2.22-6.25,2.29-9.65,1.9-.76-.08-1.51-.27-2.26-.37-.46-.06-.59-.27-.58-.7.09-3.52.18-7,.25-10.56,0-1.32,0-2.64,0-3.84,1.68-.3,3.18-.53,4.67-.83A7.51,7.51,0,0,0,83,36.4a4.29,4.29,0,0,0,2.83-4.21,19.2,19.2,0,0,1,.29-3c.31-1.76,1.39-2.66,3.15-2.33a54,54,0,0,1,6.17,1.65c3.39,1.06,6.72,2.38,10.15,3.26a31.78,31.78,0,0,0,6.9.75c5.27.14,10.55.12,15.83.21a22.21,22.21,0,0,1,3,.31c.6.1.89.44.76,1.15a7.42,7.42,0,0,1-6.56,6.3C124.12,40.63,122.69,40.63,121.2,40.71Z" transform="translate(-7.88 -16.89)"/></svg>