<svg id="Layer_6" data-name="Layer 6" xmlns="http://www.w3.org/2000/svg" viewBox="0 0 95.49 118.44"><defs><style>.cls-1{fill:#124572;}</style></defs><path class="cls-1" d="M71.67,130.7c-7.12,0-12.72,0-18.32,0-9.64,0-27.24-11.7-30.52-20.41a12.59,12.59,0,0,1-.55-4.86c.77-16.56,19.22-38.35,35.51-42.05C81.42,58,99.47,65.29,110,84.47q2.37,4.32,4.48,8.78c6.85,14.6,2.81,23.45-10.52,32.35C92.84,133,81.41,129.39,71.67,130.7ZM95.42,85.47l16.84,25.32c4.08-7.73-6.07-30.12-17.29-38.15-14.86-10.65-40.85-8.81-53,3.75-10.75,11.09-17,28.26-12.86,33.62L45.8,85.47ZM46.15,89.63c.39,4.12-.63,9,1.28,10.8,9,8.47,7.6,16.93,1.08,25.53h45c-6.45-7.54-7.75-14.46-2.8-22.34,2.43-3.88,3.62-8.54,5.84-14Zm-9.21,13.49c-2.75,6.84-5.12,13.71,2.85,17.76,1.86,1,8.55-2.68,9.29-5.27C51.88,105.86,43.76,105.09,36.94,103.12Zm70.73-.77c-11.19,2.58-18.63,4.36-15.4,13.8.87,2.54,6.44,3.47,9.85,5.14Z" transform="translate(-22.26 -12.27)"/><path class="cls-1" d="M93.69,36.18a23.32,23.32,0,0,1-23.36,23A23,23,0,0,1,47.55,35.68c0-13.1,10-23.33,22.8-23.41C83.54,12.18,93.87,22.77,93.69,36.18Zm-42.08-.89A19.22,19.22,0,0,0,70.44,55.1c10,.09,18.84-8.41,19.22-18.52A19.53,19.53,0,0,0,71.23,16.29C60.8,15.87,51.8,24.58,51.61,35.29Z" transform="translate(-22.26 -12.27)"/><path class="cls-1" d="M56.72,100.27H84.43c0,.64,0,1.27,0,1.9H56.67C56.69,101.54,56.71,100.91,56.72,100.27Z" transform="translate(-22.26 -12.27)"/><path class="cls-1" d="M83.83,115.07H57.12c0-.58,0-1.16,0-1.74H84Z" transform="translate(-22.26 -12.27)"/></svg>