<svg id="Layer_3" data-name="Layer 3" xmlns="http://www.w3.org/2000/svg" viewBox="0 0 125.32 85.49"><defs><style>.cls-1{fill:#124572;}</style></defs><circle class="cls-1" cx="78.33" cy="7.12" r="7.12"/><circle class="cls-1" cx="109.68" cy="41.32" r="5.7"/><circle class="cls-1" cx="46.99" cy="7.12" r="7.12"/><circle class="cls-1" cx="15.64" cy="41.32" r="5.7"/><path class="cls-1" d="M132.4,90.58l-5-11.83A13.84,13.84,0,0,0,120,73.62a10.36,10.36,0,0,0-3-.43,12.18,12.18,0,0,0-5.55,1.29l-8.69-6.13L97.64,47a3,3,0,0,0-1-1.57,17.18,17.18,0,0,0-5.84-2.85,21.07,21.07,0,0,0-5.13-.71,19.09,19.09,0,0,0-5,.71,17.27,17.27,0,0,0-5.84,2.85,2.77,2.77,0,0,0-1,1.57L70,62.37,66.29,47a3,3,0,0,0-1-1.57,17.23,17.23,0,0,0-5.85-2.85,20.92,20.92,0,0,0-5.12-.71,19.09,19.09,0,0,0-5,.71,17.18,17.18,0,0,0-5.84,2.85,2.71,2.71,0,0,0-1,1.57L37.37,68.35l-8.69,6.13A13.22,13.22,0,0,0,23,73.19a10.24,10.24,0,0,0-3,.43,12.46,12.46,0,0,0-7.41,5.13l-5,11.83a3.06,3.06,0,0,0,.86,3.56,3.86,3.86,0,0,0,1.71.43,2.81,2.81,0,0,0,2.56-1.71l3.14-7.41v24.79h5.7V93.14h2.85v17.1H30.1V80.32h.15L41.5,72.48a2.84,2.84,0,0,0,1.14-1.71L47.2,51.82v58.42h5.7V77.47h2.85v32.77h5.7V51.82l5.84,23.51a2.78,2.78,0,0,0,5.41,0l5.85-23.51v12l-5,20.8h5v25.65h5.7V84.59h2.84v25.65h5.7V84.59h5l-5-20.8v-12L97.5,70.77a2.84,2.84,0,0,0,1.14,1.71l11.39,8v8.83l-3,8.13h2.85v12.82h5.7V97.42h2.85v12.82h5.7V97.42H127l-2.71-7.56V85.45l3.14,7.41A2.72,2.72,0,0,0,130,94.57a2.78,2.78,0,0,0,1.71-.57A3,3,0,0,0,132.4,90.58Z" transform="translate(-7.34 -24.75)"/></svg>