<svg id="Layer_3" data-name="Layer 3" xmlns="http://www.w3.org/2000/svg" viewBox="0 0 137.41 93.73"><defs><style>.cls-1{fill:#124572;}</style></defs><circle class="cls-1" cx="85.89" cy="7.81" r="7.81"/><circle class="cls-1" cx="120.26" cy="45.3" r="6.25"/><circle class="cls-1" cx="51.52" cy="7.81" r="7.81"/><circle class="cls-1" cx="17.15" cy="45.3" r="6.25"/><path class="cls-1" d="M138.72,94.42l-5.47-13a15.12,15.12,0,0,0-8.13-5.63,11.11,11.11,0,0,0-3.28-.46,13.42,13.42,0,0,0-6.09,1.4l-9.53-6.72L100.6,46.62a3.36,3.36,0,0,0-1.1-1.72,18.8,18.8,0,0,0-6.4-3.12A23.14,23.14,0,0,0,87.48,41a21,21,0,0,0-5.47.78A18.94,18.94,0,0,0,75.6,44.9a3,3,0,0,0-1.09,1.72L70.29,63.49,66.23,46.62a3.35,3.35,0,0,0-1.09-1.72,18.85,18.85,0,0,0-6.41-3.12A23.14,23.14,0,0,0,53.11,41a21,21,0,0,0-5.47.78,18.8,18.8,0,0,0-6.4,3.12,3,3,0,0,0-1.1,1.72L34.52,70.05,25,76.77a14.54,14.54,0,0,0-6.25-1.4,11.21,11.21,0,0,0-3.28.46,13.67,13.67,0,0,0-8.12,5.63l-5.47,13a3.34,3.34,0,0,0,.94,3.91,4.17,4.17,0,0,0,1.87.47,3.08,3.08,0,0,0,2.81-1.88l3.44-8.12V116h6.25V97.24H20.3V116h6.25V83.18h.16l12.34-8.6a3.12,3.12,0,0,0,1.25-1.87l5-20.78V116h6.25V80.05h3.12V116h6.25V51.93l6.4,25.78a3.05,3.05,0,0,0,5.94,0l6.41-25.78V65.06L74.2,87.86h5.47V116h6.24V87.86H89V116h6.25V87.86h5.46l-5.46-22.8V51.93l5.15,20.78a3.12,3.12,0,0,0,1.25,1.87l12.5,8.75V93l-3.28,8.9H114V116h6.25V101.92h3.13V116h6.24V101.92h3.13l-3-8.28V88.8l3.44,8.12a3.06,3.06,0,0,0,4.68,1.25A3.32,3.32,0,0,0,138.72,94.42Z" transform="translate(-1.59 -22.25)"/></svg>