<svg id="Layer_1" data-name="Layer 1" xmlns="http://www.w3.org/2000/svg" viewBox="0 0 123.64 124.5"><defs><style>.cls-1{fill:#124572;}</style></defs><path class="cls-1" d="M29.4,79.7c2.53.42,4.48-.46,6.47-.38,1.78.06,3.61-.25,5.29.58,1.12.55,2.16,1.38,1.63,2.78s-1.73,1.27-3,.77c-2.41-1-4.88-.38-7.31,0a55.23,55.23,0,0,0-14,4.1c-1.63.74-3.25,1.48-4.28,3.1a1.6,1.6,0,0,1-2.44.53,2,2,0,0,1-.65-2.51A5.87,5.87,0,0,1,14,85.8a39,39,0,0,1,9.15-3.93c1.39-.43,2.28-1,1.76-2.72-.42-1.39.45-2.26,1.68-2.75q11-4.47,22.05-8.93a4.44,4.44,0,0,1,3.47.19q32.06,12.2,64.09,24.4c2.93,1.12,3.18,1.73,2.09,4.61q-5.49,14.49-11,28.94c-1.16,3-1.8,3.33-4.78,2.2q-31.93-12.14-63.86-24.29a5,5,0,0,1-3-2.53C33.8,97.37,32,93.8,30.22,90.2c-.58-1.18-1.19-2.55.37-3.35s2.31.51,2.9,1.68c1.54,3,3.09,6.09,4.55,9.18a5.25,5.25,0,0,0,3.11,2.8q30.15,11.43,60.26,22.95c1.77.68,2.6.31,3.26-1.46q4.45-12,9.1-23.92c.78-2,.2-2.93-1.71-3.65Q82.14,83.12,52.26,71.71a4.8,4.8,0,0,0-3.72-.2c-5.93,2.42-11.87,4.79-17.79,7.2A10.09,10.09,0,0,0,29.4,79.7Z" transform="translate(-10.98 -8.05)"/><path class="cls-1" d="M73.32,18.91h36.6c4,0,4.37.42,4.38,4.43,0,5.63,0,11.26,0,16.89a14.65,14.65,0,0,1-.12,2.3c-.16,1-.65,1.82-1.8,1.82s-1.59-.88-1.66-1.9-.08-2-.09-3.06c0-4.44,0-8.88,0-13.31,0-3.24-.28-3.51-3.52-3.51q-28.66,0-57.32,0c-3.66,0-7.34.09-11,0-2.44-.08-3.3.87-3.29,3.3.08,11.26.06,22.52,0,33.78,0,1.46.71,3.77-1.74,3.82s-1.84-2.25-1.84-3.73q-.07-18.3,0-36.6c0-3.79.42-4.19,4.34-4.19Z" transform="translate(-10.98 -8.05)"/><path class="cls-1" d="M61.83,8.06H98.16c4,0,6.11,3.67,4.19,7.25a1.54,1.54,0,0,1-1.67.9,1.6,1.6,0,0,1-1.51-1.51c0-3.06-2-3-4.14-3q-33.51,0-67,0c-3.78,0-3.82,0-3.82,3.89q0,22.91,0,45.8A24,24,0,0,1,24,64.51c-.12,1-.63,1.85-1.77,1.85s-1.58-.86-1.69-1.88a20,20,0,0,1-.08-2.05q0-25.07,0-50.15c0-3.93.29-4.21,4.24-4.22Z" transform="translate(-10.98 -8.05)"/><path class="cls-1" d="M64.78,132.55c-9.55,0-19.11,0-28.66,0-3.83,0-4.23-.43-4.24-4.3,0-5.29,0-10.58,0-15.87,0-.52,0-1,0-1.54.05-1.19.32-2.32,1.78-2.34s1.78,1.09,1.8,2.29c0,2.39,0,4.78,0,7.17s0,5,0,7.42c0,3.23.27,3.49,3.54,3.5H92.56c1,0,2,0,3.07.08s1.88.47,1.91,1.65-.79,1.67-1.8,1.8a20.19,20.19,0,0,1-2.81.14Z" transform="translate(-10.98 -8.05)"/><path class="cls-1" d="M78.72,95.78a4.69,4.69,0,0,0-2.8,1.64,21.54,21.54,0,0,1-3.85,3.35c-3.86,2.33-8.43.64-9.5-3.74-.49-2-1-3.69-3.28-4.28-1-.27-1.14-1.14-.79-2.07s.94-1.85,2-1.31c2.17,1,3.47.14,4.67-1.59A1.69,1.69,0,0,1,68,87.45c1.09,1,1.4,1.83.33,3A7.84,7.84,0,0,0,66.47,94a2.2,2.2,0,0,0,.92,2.47,2,2,0,0,0,2.4,0c1.21-.93,2.32-2,3.46-3,2.17-2,4.48-3.43,7.6-2.45a6.78,6.78,0,0,1,5,6.38,2.38,2.38,0,0,0,1.73,2.26c1.21.44,1.81,1.17,1.32,2.55s-1.21,1.82-2.53,1.27-2,0-2.77,1.08a8,8,0,0,1-2,2c-1.23.86-2-.15-2.85-.88s-.47-1.49.19-2.18a7.62,7.62,0,0,0,2.51-4.62C81.67,96.86,80.53,95.63,78.72,95.78Z" transform="translate(-10.98 -8.05)"/><path class="cls-1" d="M67.34,47.94H48.43a24.18,24.18,0,0,1-2.55-.12c-1.07-.12-2.07-.46-2.08-1.79s1-1.69,2.05-1.83a15.4,15.4,0,0,1,2-.1c13,0,26.06,0,39.08,0,1.59,0,4-.51,4,1.88s-2.44,1.87-4,1.89C80.45,48,73.89,47.94,67.34,47.94Z" transform="translate(-10.98 -8.05)"/><path class="cls-1" d="M61.43,55.69c4.77,0,9.54,0,14.31,0,1.33,0,3.08-.17,3,1.81,0,1.67-1.58,1.8-2.89,1.8q-14.56,0-29.14,0c-1.3,0-2.84-.09-2.9-1.79-.06-2,1.7-1.81,3-1.82C51.71,55.67,56.57,55.69,61.43,55.69Z" transform="translate(-10.98 -8.05)"/><path class="cls-1" d="M20.5,108.25c0-3.32,0-6.65,0-10,0-1.24-.13-2.87,1.7-2.88s1.92,1.63,1.93,3c0,5.29.08,10.57,0,15.85,0,2.15.23,3.73,3,3.59a1.79,1.79,0,0,1,2,1.82c0,1.31-1,1.59-2.13,1.72-5.83.73-6.53.13-6.53-5.71v-7.42Z" transform="translate(-10.98 -8.05)"/><path class="cls-1" d="M57.56,36.37c-3.75,0-7.5,0-11.24,0-1.25,0-2.56-.18-2.49-1.84.05-1.41,1.21-1.74,2.39-1.74q11.49,0,23,0c1.19,0,2.36.39,2.39,1.77,0,1.59-1.3,1.8-2.55,1.81C65.22,36.38,61.39,36.37,57.56,36.37Z" transform="translate(-10.98 -8.05)"/><path class="cls-1" d="M133.79,60.66c-2.14-2.65-4.23-5.35-6.23-8.11a4.3,4.3,0,0,0-3.9-1.92c-4.18.07-8.36,0-12.54,0s-8.53,0-12.79,0a3.63,3.63,0,0,0-3.28,1.56c-2.11,2.89-4.3,5.73-6.51,8.55a2.47,2.47,0,0,0,.3,3.8q10.27,9.61,20.5,19.28c1.21,1.14,2.36,1.23,3.58.08l20.69-19.46C134.91,63.22,134.92,62.06,133.79,60.66Zm-24.14-4.1c1-1.22,2-1.08,3,0,.06.07.13.11.18.18.9,1.18,3.18,2,2.66,3.35s-2.76.37-4.19.7c-1.49-.29-3.73.7-4.27-.65C106.39,58.62,108.71,57.78,109.65,56.56ZM94.32,59.8a3,3,0,0,1,2.07-2.65c1.11-.18,1,1.33,1.38,2.06,0,1.41-1,1.48-1.92,1.51C95.17,60.73,94.21,60.66,94.32,59.8Zm8.73,12.92q-3.47-3.21-6.92-6.43c-.4-.39-1.14-.74-.82-1.42s1-.36,1.62-.42c2-.2,3.45.31,4.23,2.38.7,1.82,1.66,3.54,2.5,5.3C103.78,72.67,103.63,72.92,103.05,72.72Zm-.83-14.49c-1.41.19-1.61-1.59-1.67-2.65-.11-1.77,1.53-1,2.33-1.39.92.39,2.66-.42,2.43,1A4,4,0,0,1,102.22,58.23Zm14.92,8.41q-2.49,5.06-5,10.1c-.6,1.22-1.28,1.33-1.92,0q-2.64-5.27-5.23-10.55c-.62-1.26,0-1.75,1.18-1.76,1.62,0,3.25,0,4.87,0h0c1.53,0,3.07,0,4.6,0S117.94,65,117.14,66.64Zm-.27-11.52c-.12-1.45,1.83-.67,2.85-.77s2.17-.39,2.19,1.35c-.58.85-.36,2.77-1.77,2.55A4.14,4.14,0,0,1,116.87,55.12ZM126.42,66c-1.52,1.51-3,3-4.61,4.45-1,.92-2,1.79-3,2.68l-.52-.46c1.14-2.28,2.23-4.58,3.43-6.82.68-1.26,3.65-2,4.78-1.27C127.35,65.12,126.82,65.62,126.42,66Zm0-5.26c-.89-.13-2.11.08-1.85-1.4.14-.86.27-2.29,1.29-2.2,1.19.1,1.93,1.44,2.18,2.57S127.12,60.61,126.43,60.76Z" transform="translate(-10.98 -8.05)"/><path class="cls-1" d="M103.05,72.72l.61-.59c.27.4.83.86.31,1.27C103.66,73.64,103.29,73.06,103.05,72.72Z" transform="translate(-10.98 -8.05)"/></svg>